<mxfile host="app.diagrams.net" agent="Mozilla/5.0 (Windows NT 10.0; Win64; x64) AppleWebKit/537.36 (KHTML, like Gecko) Chrome/129.0.0.0 Safari/537.36" version="24.7.17">
  <diagram name="Side-1" id="g5RyCuunzVJtl1v-Ngib">
    <mxGraphModel dx="1049" dy="552" grid="1" gridSize="10" guides="1" tooltips="1" connect="1" arrows="1" fold="1" page="1" pageScale="1" pageWidth="827" pageHeight="1169" math="0" shadow="0">
      <root>
        <mxCell id="0" />
        <mxCell id="1" parent="0" />
        <mxCell id="0aqooHVS6FVHF-5V4l5z-53" value="" style="endArrow=none;dashed=1;html=1;rounded=0;" edge="1" parent="1">
          <mxGeometry width="50" height="50" relative="1" as="geometry">
            <mxPoint x="459.71000000000004" y="420" as="sourcePoint" />
            <mxPoint x="459.71000000000004" y="180" as="targetPoint" />
          </mxGeometry>
        </mxCell>
        <mxCell id="0aqooHVS6FVHF-5V4l5z-54" value="" style="endArrow=none;dashed=1;html=1;rounded=0;" edge="1" parent="1">
          <mxGeometry width="50" height="50" relative="1" as="geometry">
            <mxPoint x="599.71" y="420" as="sourcePoint" />
            <mxPoint x="599.71" y="180" as="targetPoint" />
          </mxGeometry>
        </mxCell>
        <mxCell id="0aqooHVS6FVHF-5V4l5z-55" value="" style="endArrow=none;dashed=1;html=1;rounded=0;" edge="1" parent="1">
          <mxGeometry width="50" height="50" relative="1" as="geometry">
            <mxPoint x="739.71" y="420" as="sourcePoint" />
            <mxPoint x="739.71" y="180" as="targetPoint" />
          </mxGeometry>
        </mxCell>
        <mxCell id="0aqooHVS6FVHF-5V4l5z-52" value="" style="endArrow=none;dashed=1;html=1;rounded=0;" edge="1" parent="1">
          <mxGeometry width="50" height="50" relative="1" as="geometry">
            <mxPoint x="320" y="420" as="sourcePoint" />
            <mxPoint x="320" y="180" as="targetPoint" />
          </mxGeometry>
        </mxCell>
        <mxCell id="0aqooHVS6FVHF-5V4l5z-9" style="edgeStyle=orthogonalEdgeStyle;rounded=0;orthogonalLoop=1;jettySize=auto;html=1;exitX=1;exitY=0.5;exitDx=0;exitDy=0;entryX=0;entryY=0.5;entryDx=0;entryDy=0;endArrow=none;endFill=0;" edge="1" parent="1" source="0aqooHVS6FVHF-5V4l5z-1" target="0aqooHVS6FVHF-5V4l5z-8">
          <mxGeometry relative="1" as="geometry" />
        </mxCell>
        <mxCell id="0aqooHVS6FVHF-5V4l5z-1" value="X" style="shape=hexagon;perimeter=hexagonPerimeter2;whiteSpace=wrap;html=1;fixedSize=1;fontSize=14;" vertex="1" parent="1">
          <mxGeometry x="270" y="300" width="100" height="40" as="geometry" />
        </mxCell>
        <mxCell id="0aqooHVS6FVHF-5V4l5z-2" value="" style="endArrow=none;html=1;rounded=0;" edge="1" parent="1">
          <mxGeometry width="50" height="50" relative="1" as="geometry">
            <mxPoint x="200" y="240" as="sourcePoint" />
            <mxPoint x="320" y="240" as="targetPoint" />
          </mxGeometry>
        </mxCell>
        <mxCell id="0aqooHVS6FVHF-5V4l5z-3" value="" style="endArrow=none;html=1;rounded=0;" edge="1" parent="1">
          <mxGeometry width="50" height="50" relative="1" as="geometry">
            <mxPoint x="320" y="240" as="sourcePoint" />
            <mxPoint x="320" y="200" as="targetPoint" />
          </mxGeometry>
        </mxCell>
        <mxCell id="0aqooHVS6FVHF-5V4l5z-5" value="" style="endArrow=none;html=1;rounded=0;" edge="1" parent="1">
          <mxGeometry width="50" height="50" relative="1" as="geometry">
            <mxPoint x="320" y="200" as="sourcePoint" />
            <mxPoint x="460" y="200" as="targetPoint" />
          </mxGeometry>
        </mxCell>
        <mxCell id="0aqooHVS6FVHF-5V4l5z-6" value="" style="endArrow=none;html=1;rounded=0;" edge="1" parent="1">
          <mxGeometry width="50" height="50" relative="1" as="geometry">
            <mxPoint x="460" y="240" as="sourcePoint" />
            <mxPoint x="460" y="200" as="targetPoint" />
          </mxGeometry>
        </mxCell>
        <mxCell id="0aqooHVS6FVHF-5V4l5z-41" style="edgeStyle=orthogonalEdgeStyle;rounded=0;orthogonalLoop=1;jettySize=auto;html=1;entryX=0;entryY=0.5;entryDx=0;entryDy=0;endArrow=none;endFill=0;" edge="1" parent="1" source="0aqooHVS6FVHF-5V4l5z-8" target="0aqooHVS6FVHF-5V4l5z-27">
          <mxGeometry relative="1" as="geometry" />
        </mxCell>
        <mxCell id="0aqooHVS6FVHF-5V4l5z-8" value="R/W" style="shape=hexagon;perimeter=hexagonPerimeter2;whiteSpace=wrap;html=1;fixedSize=1;fontSize=14;" vertex="1" parent="1">
          <mxGeometry x="410" y="300" width="100" height="40" as="geometry" />
        </mxCell>
        <mxCell id="0aqooHVS6FVHF-5V4l5z-10" value="" style="endArrow=none;html=1;rounded=0;" edge="1" parent="1">
          <mxGeometry width="50" height="50" relative="1" as="geometry">
            <mxPoint x="459" y="312" as="sourcePoint" />
            <mxPoint x="474" y="312" as="targetPoint" />
            <Array as="points">
              <mxPoint x="469" y="312" />
            </Array>
          </mxGeometry>
        </mxCell>
        <mxCell id="0aqooHVS6FVHF-5V4l5z-13" style="edgeStyle=orthogonalEdgeStyle;rounded=0;orthogonalLoop=1;jettySize=auto;html=1;exitX=1;exitY=0.5;exitDx=0;exitDy=0;entryX=0;entryY=0.5;entryDx=0;entryDy=0;endArrow=none;endFill=0;" edge="1" parent="1" source="0aqooHVS6FVHF-5V4l5z-11" target="0aqooHVS6FVHF-5V4l5z-12">
          <mxGeometry relative="1" as="geometry" />
        </mxCell>
        <mxCell id="0aqooHVS6FVHF-5V4l5z-11" value="Adress" style="shape=hexagon;perimeter=hexagonPerimeter2;whiteSpace=wrap;html=1;fixedSize=1;fontSize=14;" vertex="1" parent="1">
          <mxGeometry x="270" y="370" width="100" height="40" as="geometry" />
        </mxCell>
        <mxCell id="0aqooHVS6FVHF-5V4l5z-45" style="edgeStyle=orthogonalEdgeStyle;rounded=0;orthogonalLoop=1;jettySize=auto;html=1;entryX=0;entryY=0.5;entryDx=0;entryDy=0;endArrow=none;endFill=0;" edge="1" parent="1" source="0aqooHVS6FVHF-5V4l5z-12" target="0aqooHVS6FVHF-5V4l5z-29">
          <mxGeometry relative="1" as="geometry" />
        </mxCell>
        <mxCell id="0aqooHVS6FVHF-5V4l5z-12" value="DATA" style="shape=hexagon;perimeter=hexagonPerimeter2;whiteSpace=wrap;html=1;fixedSize=1;fontSize=14;" vertex="1" parent="1">
          <mxGeometry x="410" y="370" width="100" height="40" as="geometry" />
        </mxCell>
        <mxCell id="0aqooHVS6FVHF-5V4l5z-14" value="R/W" style="text;html=1;align=center;verticalAlign=middle;resizable=0;points=[];autosize=1;strokeColor=none;fillColor=none;fontSize=14;" vertex="1" parent="1">
          <mxGeometry x="156" y="304" width="50" height="30" as="geometry" />
        </mxCell>
        <mxCell id="0aqooHVS6FVHF-5V4l5z-15" value="" style="endArrow=none;html=1;rounded=0;" edge="1" parent="1">
          <mxGeometry width="50" height="50" relative="1" as="geometry">
            <mxPoint x="181" y="312" as="sourcePoint" />
            <mxPoint x="196" y="312" as="targetPoint" />
          </mxGeometry>
        </mxCell>
        <mxCell id="0aqooHVS6FVHF-5V4l5z-18" style="edgeStyle=orthogonalEdgeStyle;rounded=0;orthogonalLoop=1;jettySize=auto;html=1;exitX=1;exitY=0.5;exitDx=0;exitDy=0;endArrow=none;endFill=0;" edge="1" parent="1">
          <mxGeometry relative="1" as="geometry">
            <mxPoint x="200" y="319.8" as="sourcePoint" />
            <mxPoint x="270" y="319.8" as="targetPoint" />
          </mxGeometry>
        </mxCell>
        <mxCell id="0aqooHVS6FVHF-5V4l5z-19" style="edgeStyle=orthogonalEdgeStyle;rounded=0;orthogonalLoop=1;jettySize=auto;html=1;exitX=1;exitY=0.5;exitDx=0;exitDy=0;endArrow=none;endFill=0;" edge="1" parent="1">
          <mxGeometry relative="1" as="geometry">
            <mxPoint x="200" y="389.8" as="sourcePoint" />
            <mxPoint x="270" y="389.8" as="targetPoint" />
          </mxGeometry>
        </mxCell>
        <mxCell id="0aqooHVS6FVHF-5V4l5z-20" value="CLK" style="text;html=1;align=center;verticalAlign=middle;resizable=0;points=[];autosize=1;strokeColor=none;fillColor=none;fontSize=14;" vertex="1" parent="1">
          <mxGeometry x="159" y="226" width="50" height="30" as="geometry" />
        </mxCell>
        <mxCell id="0aqooHVS6FVHF-5V4l5z-21" value="I/O" style="text;html=1;align=center;verticalAlign=middle;resizable=0;points=[];autosize=1;strokeColor=none;fillColor=none;fontSize=14;" vertex="1" parent="1">
          <mxGeometry x="164" y="375" width="40" height="30" as="geometry" />
        </mxCell>
        <mxCell id="0aqooHVS6FVHF-5V4l5z-24" value="" style="endArrow=none;html=1;rounded=0;" edge="1" parent="1">
          <mxGeometry width="50" height="50" relative="1" as="geometry">
            <mxPoint x="600" y="240" as="sourcePoint" />
            <mxPoint x="600" y="200" as="targetPoint" />
          </mxGeometry>
        </mxCell>
        <mxCell id="0aqooHVS6FVHF-5V4l5z-25" value="" style="endArrow=classic;html=1;rounded=0;" edge="1" parent="1">
          <mxGeometry width="50" height="50" relative="1" as="geometry">
            <mxPoint x="319.92" y="226" as="sourcePoint" />
            <mxPoint x="319.92" y="216" as="targetPoint" />
          </mxGeometry>
        </mxCell>
        <mxCell id="0aqooHVS6FVHF-5V4l5z-26" value="" style="endArrow=classic;html=1;rounded=0;" edge="1" parent="1">
          <mxGeometry width="50" height="50" relative="1" as="geometry">
            <mxPoint x="459.92" y="216" as="sourcePoint" />
            <mxPoint x="459.92" y="226" as="targetPoint" />
          </mxGeometry>
        </mxCell>
        <mxCell id="0aqooHVS6FVHF-5V4l5z-42" style="edgeStyle=orthogonalEdgeStyle;rounded=0;orthogonalLoop=1;jettySize=auto;html=1;exitX=1;exitY=0.5;exitDx=0;exitDy=0;entryX=0;entryY=0.5;entryDx=0;entryDy=0;endArrow=none;endFill=0;" edge="1" parent="1" source="0aqooHVS6FVHF-5V4l5z-27" target="0aqooHVS6FVHF-5V4l5z-28">
          <mxGeometry relative="1" as="geometry" />
        </mxCell>
        <mxCell id="0aqooHVS6FVHF-5V4l5z-27" value="X" style="shape=hexagon;perimeter=hexagonPerimeter2;whiteSpace=wrap;html=1;fixedSize=1;fontSize=14;" vertex="1" parent="1">
          <mxGeometry x="550" y="300" width="100" height="40" as="geometry" />
        </mxCell>
        <mxCell id="0aqooHVS6FVHF-5V4l5z-43" style="edgeStyle=orthogonalEdgeStyle;rounded=0;orthogonalLoop=1;jettySize=auto;html=1;exitX=1;exitY=0.5;exitDx=0;exitDy=0;endArrow=none;endFill=0;" edge="1" parent="1" source="0aqooHVS6FVHF-5V4l5z-28">
          <mxGeometry relative="1" as="geometry">
            <mxPoint x="810" y="319.93548387096774" as="targetPoint" />
          </mxGeometry>
        </mxCell>
        <mxCell id="0aqooHVS6FVHF-5V4l5z-28" value="R/W" style="shape=hexagon;perimeter=hexagonPerimeter2;whiteSpace=wrap;html=1;fixedSize=1;fontSize=14;" vertex="1" parent="1">
          <mxGeometry x="690" y="300" width="100" height="40" as="geometry" />
        </mxCell>
        <mxCell id="0aqooHVS6FVHF-5V4l5z-48" style="edgeStyle=orthogonalEdgeStyle;rounded=0;orthogonalLoop=1;jettySize=auto;html=1;entryX=0;entryY=0.5;entryDx=0;entryDy=0;endArrow=none;endFill=0;" edge="1" parent="1" source="0aqooHVS6FVHF-5V4l5z-29" target="0aqooHVS6FVHF-5V4l5z-30">
          <mxGeometry relative="1" as="geometry" />
        </mxCell>
        <mxCell id="0aqooHVS6FVHF-5V4l5z-29" value="Adress" style="shape=hexagon;perimeter=hexagonPerimeter2;whiteSpace=wrap;html=1;fixedSize=1;fontSize=14;" vertex="1" parent="1">
          <mxGeometry x="550" y="370" width="100" height="40" as="geometry" />
        </mxCell>
        <mxCell id="0aqooHVS6FVHF-5V4l5z-44" style="edgeStyle=orthogonalEdgeStyle;rounded=0;orthogonalLoop=1;jettySize=auto;html=1;endArrow=none;endFill=0;" edge="1" parent="1" source="0aqooHVS6FVHF-5V4l5z-30">
          <mxGeometry relative="1" as="geometry">
            <mxPoint x="810" y="390" as="targetPoint" />
          </mxGeometry>
        </mxCell>
        <mxCell id="0aqooHVS6FVHF-5V4l5z-30" value="DATA" style="shape=hexagon;perimeter=hexagonPerimeter2;whiteSpace=wrap;html=1;fixedSize=1;fontSize=14;" vertex="1" parent="1">
          <mxGeometry x="690" y="370" width="100" height="40" as="geometry" />
        </mxCell>
        <mxCell id="0aqooHVS6FVHF-5V4l5z-31" value="" style="endArrow=none;html=1;rounded=0;" edge="1" parent="1">
          <mxGeometry width="50" height="50" relative="1" as="geometry">
            <mxPoint x="600" y="200" as="sourcePoint" />
            <mxPoint x="740" y="200" as="targetPoint" />
          </mxGeometry>
        </mxCell>
        <mxCell id="0aqooHVS6FVHF-5V4l5z-32" value="" style="endArrow=none;html=1;rounded=0;" edge="1" parent="1">
          <mxGeometry width="50" height="50" relative="1" as="geometry">
            <mxPoint x="739.8399999999999" y="240" as="sourcePoint" />
            <mxPoint x="739.8399999999999" y="200" as="targetPoint" />
          </mxGeometry>
        </mxCell>
        <mxCell id="0aqooHVS6FVHF-5V4l5z-33" value="" style="endArrow=classic;html=1;rounded=0;" edge="1" parent="1">
          <mxGeometry width="50" height="50" relative="1" as="geometry">
            <mxPoint x="739.76" y="216" as="sourcePoint" />
            <mxPoint x="739.76" y="226" as="targetPoint" />
          </mxGeometry>
        </mxCell>
        <mxCell id="0aqooHVS6FVHF-5V4l5z-35" value="" style="endArrow=none;html=1;rounded=0;" edge="1" parent="1">
          <mxGeometry width="50" height="50" relative="1" as="geometry">
            <mxPoint x="460" y="240" as="sourcePoint" />
            <mxPoint x="600" y="240" as="targetPoint" />
          </mxGeometry>
        </mxCell>
        <mxCell id="0aqooHVS6FVHF-5V4l5z-36" value="" style="endArrow=none;html=1;rounded=0;" edge="1" parent="1">
          <mxGeometry width="50" height="50" relative="1" as="geometry">
            <mxPoint x="740" y="240" as="sourcePoint" />
            <mxPoint x="810" y="240" as="targetPoint" />
          </mxGeometry>
        </mxCell>
        <mxCell id="0aqooHVS6FVHF-5V4l5z-51" value="" style="endArrow=classic;html=1;rounded=0;" edge="1" parent="1">
          <mxGeometry width="50" height="50" relative="1" as="geometry">
            <mxPoint x="599.9" y="226" as="sourcePoint" />
            <mxPoint x="599.9" y="216" as="targetPoint" />
          </mxGeometry>
        </mxCell>
        <mxCell id="0aqooHVS6FVHF-5V4l5z-56" value="X = Dont Care" style="text;html=1;align=center;verticalAlign=middle;resizable=0;points=[];autosize=1;strokeColor=none;fillColor=none;" vertex="1" parent="1">
          <mxGeometry x="164" y="450" width="100" height="30" as="geometry" />
        </mxCell>
        <mxCell id="0aqooHVS6FVHF-5V4l5z-62" value="" style="endArrow=none;html=1;rounded=0;" edge="1" parent="1">
          <mxGeometry width="50" height="50" relative="1" as="geometry">
            <mxPoint x="740" y="313" as="sourcePoint" />
            <mxPoint x="755" y="313" as="targetPoint" />
            <Array as="points">
              <mxPoint x="750" y="313" />
            </Array>
          </mxGeometry>
        </mxCell>
        <mxCell id="0aqooHVS6FVHF-5V4l5z-66" value="" style="endArrow=none;html=1;rounded=0;dashed=1;dashPattern=8 8;" edge="1" parent="1">
          <mxGeometry width="50" height="50" relative="1" as="geometry">
            <mxPoint x="810" y="240" as="sourcePoint" />
            <mxPoint x="860" y="240" as="targetPoint" />
          </mxGeometry>
        </mxCell>
        <mxCell id="0aqooHVS6FVHF-5V4l5z-67" value="" style="endArrow=none;html=1;rounded=0;dashed=1;dashPattern=8 8;" edge="1" parent="1">
          <mxGeometry width="50" height="50" relative="1" as="geometry">
            <mxPoint x="810" y="320" as="sourcePoint" />
            <mxPoint x="860" y="320" as="targetPoint" />
          </mxGeometry>
        </mxCell>
        <mxCell id="0aqooHVS6FVHF-5V4l5z-68" value="" style="endArrow=none;html=1;rounded=0;dashed=1;dashPattern=8 8;" edge="1" parent="1">
          <mxGeometry width="50" height="50" relative="1" as="geometry">
            <mxPoint x="810" y="390" as="sourcePoint" />
            <mxPoint x="860" y="390" as="targetPoint" />
          </mxGeometry>
        </mxCell>
      </root>
    </mxGraphModel>
  </diagram>
</mxfile>
